<svg xmlns="http://www.w3.org/2000/svg" viewBox="0 0 138.05 138.05"><defs><style>.cls-1{fill:#222;}.cls-2{fill:#fff;}</style></defs><g id="Capa_2" data-name="Capa 2"><g id="Слой_1" data-name="Слой 1"><circle class="cls-1" cx="69.02" cy="69.02" r="69.02" transform="translate(-14.25 119.96) rotate(-76.45)"/><path class="cls-2" d="M90.45,42.91a4.75,4.75,0,1,0,4.75,4.75A4.75,4.75,0,0,0,90.45,42.91Z"/><path class="cls-2" d="M69.36,49A19.93,19.93,0,1,0,89.29,68.93,20,20,0,0,0,69.36,49Zm0,32.69A12.77,12.77,0,1,1,82.12,68.93,12.78,12.78,0,0,1,69.36,81.69Z"/><path class="cls-2" d="M85.18,109.39H52.87A24.33,24.33,0,0,1,28.56,85.08V52.77A24.34,24.34,0,0,1,52.87,28.46H85.18a24.34,24.34,0,0,1,24.31,24.31V85.08A24.34,24.34,0,0,1,85.18,109.39ZM52.87,36.08a16.71,16.71,0,0,0-16.7,16.69V85.08a16.72,16.72,0,0,0,16.7,16.7H85.18a16.72,16.72,0,0,0,16.7-16.7V52.77a16.71,16.71,0,0,0-16.7-16.69Z"/></g></g></svg>